<svg width="51" height="61" viewBox="0 0 51 61" fill="none" xmlns="http://www.w3.org/2000/svg">
<g clip-path="url(#clip0_5_1062)">
<g clip-path="url(#clip1_5_1062)">
<g clip-path="url(#clip2_5_1062)">
<mask id="mask0_5_1062" style="mask-type:luminance" maskUnits="userSpaceOnUse" x="0" y="0" width="51" height="61">
<path d="M51 0.389893H0V60.3899H51V0.389893Z" fill="white"/>
</mask>
<g mask="url(#mask0_5_1062)">
<path d="M22.9688 53.3575C22.9688 53.1219 22.827 52.9094 22.6096 52.8188C20.0682 51.7594 18.2812 49.2526 18.2812 46.3274V23.8274C18.2812 20.9022 20.0682 18.3953 22.6096 17.336C22.827 17.2454 22.9688 17.0328 22.9688 16.7973V16.7961H18.2812C14.398 16.7961 11.25 19.9442 11.25 23.8274V46.3274C11.25 50.2106 14.398 53.3587 18.2812 53.3587H22.9688V53.3575Z" fill="#EEF1FB"/>
<path d="M23.3711 41.7066L36.6295 28.4482" stroke="#FF5CF4" stroke-width="3" stroke-miterlimit="10" stroke-linecap="round" stroke-linejoin="round"/>
<path d="M30 21.4837L44.0625 2.73364" stroke="#405FF2" stroke-width="3" stroke-miterlimit="10" stroke-linecap="round" stroke-linejoin="round"/>
<path d="M15.9375 2.73364L25.3895 13.3382" stroke="#405FF2" stroke-width="3" stroke-miterlimit="10" stroke-linecap="round" stroke-linejoin="round"/>
<path d="M48.75 30.3898V23.8273C48.75 19.9441 45.602 16.796 41.7188 16.796H38.0747C36.4508 14.0057 33.4612 12.1086 30 12.1086C26.5388 12.1086 23.5493 14.0057 21.9253 16.796H18.2812C14.398 16.796 11.25 19.9441 11.25 23.8273V46.3273C11.25 50.2105 14.398 53.3586 18.2812 53.3586H21.9253C23.5492 56.1489 26.5388 58.046 30 58.046C33.4612 58.046 36.4507 56.1489 38.0747 53.3586H41.7188C45.602 53.3586 48.75 50.2105 48.75 46.3273V39.7648" stroke="#405FF2" stroke-width="3" stroke-miterlimit="10" stroke-linecap="round" stroke-linejoin="round"/>
</g>
</g>
</g>
</g>
<defs>
<clipPath id="clip0_5_1062">
<rect width="51" height="60" fill="white" transform="translate(0 0.389893)"/>
</clipPath>
<clipPath id="clip1_5_1062">
<rect width="51" height="60" fill="white" transform="translate(0 0.389893)"/>
</clipPath>
<clipPath id="clip2_5_1062">
<rect width="51" height="60" fill="white" transform="translate(0 0.389893)"/>
</clipPath>
</defs>
</svg>
