<svg width="61" height="61" viewBox="0 0 61 61" fill="none" xmlns="http://www.w3.org/2000/svg">
<g clip-path="url(#clip0_5_1105)" filter="url(#filter0_d_5_1105)">
<path d="M24.0465 4.84302C20.3452 4.84302 16.9904 7.02072 15.4836 10.4013L9.38656 24.0805C5.73148 24.3317 2.84375 27.3742 2.84375 31.093V36.4837C2.84375 39.7197 5.46711 42.343 8.70312 42.343H10.3092C10.3179 41.8921 10.3293 41.4413 10.3438 40.9904C9.9623 40.2129 9.74727 39.3389 9.74727 38.4144L9.64062 34.2571C9.64062 31.1826 10.2662 29.9993 12.5483 29.5396C13.6331 29.321 14.5413 28.5819 14.9858 27.5685L22.5148 10.4013C24.0215 7.02072 27.3764 4.84302 31.0777 4.84302H24.0465Z" fill="#EEF1FB"/>
<path d="M8.70312 42.343C5.46711 42.343 2.84375 39.7197 2.84375 36.4837V31.093C2.84375 27.3742 5.73148 24.3317 9.38656 24.0805L15.4836 10.4013C16.9903 7.02072 20.3451 4.84302 24.0465 4.84302H34.7217C38.2441 4.84302 41.4692 6.8174 43.0711 9.95451L46.0859 15.8587M58.1562 31.093C58.1562 27.2098 55.0082 24.0618 51.125 24.0618H19.1328M28.7422 15.8587V4.96021M32.9609 42.343H27.6873M21.242 37.6555C18.6532 37.6555 16.5545 39.7542 16.5545 42.343C16.5545 44.9318 18.6532 47.0305 21.242 47.0305C23.8307 47.0305 25.9295 44.9318 25.9295 42.343C25.9295 39.7542 23.8309 37.6555 21.242 37.6555Z" stroke="#405FF2" stroke-width="3" stroke-miterlimit="10" stroke-linecap="round" stroke-linejoin="round"/>
<path d="M58.1562 41.9915C58.1562 46.4896 54.5097 50.1946 50.0117 50.1946C45.5136 50.1946 41.8671 46.5482 41.8671 42.0501C41.8671 37.5519 45.5722 33.9055 50.0703 33.9055M44.0351 48.4954L36.5938 55.9368" stroke="#FF5CF3" stroke-width="3" stroke-miterlimit="10" stroke-linecap="round" stroke-linejoin="round"/>
</g>
<defs>
<filter id="filter0_d_5_1105" x="-3.5" y="0.389893" width="68" height="68" filterUnits="userSpaceOnUse" color-interpolation-filters="sRGB">
<feFlood flood-opacity="0" result="BackgroundImageFix"/>
<feColorMatrix in="SourceAlpha" type="matrix" values="0 0 0 0 0 0 0 0 0 0 0 0 0 0 0 0 0 0 127 0" result="hardAlpha"/>
<feOffset dy="4"/>
<feGaussianBlur stdDeviation="2"/>
<feComposite in2="hardAlpha" operator="out"/>
<feColorMatrix type="matrix" values="0 0 0 0 0 0 0 0 0 0 0 0 0 0 0 0 0 0 0.25 0"/>
<feBlend mode="normal" in2="BackgroundImageFix" result="effect1_dropShadow_5_1105"/>
<feBlend mode="normal" in="SourceGraphic" in2="effect1_dropShadow_5_1105" result="shape"/>
</filter>
<clipPath id="clip0_5_1105">
<rect width="60" height="60" fill="white" transform="translate(0.5 0.389893)"/>
</clipPath>
</defs>
</svg>
