<svg width="110" height="111" viewBox="0 0 110 111" fill="none" xmlns="http://www.w3.org/2000/svg">
<g clip-path="url(#clip0_5_902)">
<path d="M43.1686 15.4841C36.3829 15.4841 30.2324 19.4766 27.4699 25.6744L16.292 50.7529C9.59104 51.2133 4.29688 56.7913 4.29688 63.6091V76.4997C4.29688 82.4324 9.10636 87.2419 15.0391 87.2419H17.9835C17.9994 86.4152 18.0204 85.5887 18.0469 84.7622C17.3476 83.3367 16.9533 81.7344 16.9533 80.0395L16.7578 72.4177C16.7578 66.7811 17.9046 61.604 22.0885 60.7611C24.0773 60.3605 25.7424 59.0055 26.5573 57.1475L40.3605 25.6744C43.1228 19.4766 49.2733 15.4841 56.0592 15.4841H43.1686Z" fill="#CEE1F2"/>
<path d="M94.9609 87.2419C100.894 87.2419 105.703 82.4324 105.703 76.4997V63.6091C105.703 56.4898 99.9318 50.7185 92.8125 50.7185L79.5736 24.9104C76.6474 19.1287 70.7184 15.4841 64.2383 15.4841H43.1686C36.3829 15.4841 30.2324 19.4766 27.4699 25.6744L16.292 50.7529C9.59104 51.2133 4.29688 56.7913 4.29688 63.6091V76.4997C4.29688 82.4324 9.10636 87.2419 15.0391 87.2419" stroke="#405FF2" stroke-width="5" stroke-miterlimit="10" stroke-linecap="round" stroke-linejoin="round"/>
<path d="M38.0273 95.8357C42.7735 95.8357 46.6211 91.9881 46.6211 87.2419C46.6211 82.4957 42.7735 78.6482 38.0273 78.6482C33.2811 78.6482 29.4336 82.4957 29.4336 87.2419C29.4336 91.9881 33.2811 95.8357 38.0273 95.8357Z" stroke="#405FF2" stroke-width="5" stroke-miterlimit="10" stroke-linecap="round" stroke-linejoin="round"/>
<path d="M63.1646 87.2419H49.8438" stroke="#405FF2" stroke-width="5" stroke-miterlimit="10" stroke-linecap="round" stroke-linejoin="round"/>
<path d="M71.9727 95.8357C76.7189 95.8357 80.5664 91.9881 80.5664 87.2419C80.5664 82.4957 76.7189 78.6482 71.9727 78.6482C67.2265 78.6482 63.3789 82.4957 63.3789 87.2419C63.3789 91.9881 67.2265 95.8357 71.9727 95.8357Z" stroke="#405FF2" stroke-width="5" stroke-miterlimit="10" stroke-linecap="round" stroke-linejoin="round"/>
<path d="M51.5625 67.4763L63.5321 55.8698C65.9379 53.5186 64.2746 49.4311 60.9118 49.4311H49.9492C46.5803 49.4311 44.9199 45.3304 47.3384 42.9833L59.7345 30.9529" stroke="#FF5CF3" stroke-width="5" stroke-miterlimit="10" stroke-linecap="round" stroke-linejoin="round"/>
</g>
<defs>
<clipPath id="clip0_5_902">
<rect width="110" height="110" fill="white" transform="translate(0 0.659912)"/>
</clipPath>
</defs>
</svg>
