<svg width="36" height="35" viewBox="0 0 36 35" fill="none" xmlns="http://www.w3.org/2000/svg">
<mask id="mask0_5_830" style="mask-type:luminance" maskUnits="userSpaceOnUse" x="1" y="0" width="34" height="35">
<path d="M35 0.340088H1V34.3401H35V0.340088Z" fill="white"/>
</mask>
<g mask="url(#mask0_5_830)">
<path d="M30.1539 13.2992H27.4432C26.5374 11.9692 25.3322 10.8574 23.9281 10.0645C22.3558 9.17653 20.5704 8.70728 18.765 8.70728H18C17.4451 8.70728 16.9953 9.15707 16.9953 9.71192V13.2992H5.8461C3.39815 13.2992 1.36964 15.1241 1.04617 17.4846C1.04254 17.5074 1.03943 17.5302 1.03735 17.5536C1.01375 17.7479 1 17.945 1 18.1455V21.987C1 22.5418 1.4498 22.9916 2.00465 22.9916H5.51978C5.96672 24.7182 7.5379 25.9968 9.40221 25.9968C11.2665 25.9968 12.8377 24.7182 13.2846 22.9916H22.7154C23.1626 24.7182 24.7335 25.9968 26.5978 25.9968C28.4621 25.9968 30.033 24.7182 30.4802 22.9916H33.9953C34.5502 22.9916 35 22.5418 35 21.987V18.1455C35 15.4732 32.826 13.2992 30.1539 13.2992ZM19.0047 10.7202C21.2251 10.7838 23.3312 11.7308 24.8588 13.2992H19.0047V10.7202ZM3.00931 18.6441H4.56104C5.11589 18.6441 5.56569 18.1943 5.56569 17.6394C5.56569 17.0846 5.11589 16.6348 4.56104 16.6348H3.44691C3.94989 15.8387 4.83704 15.3087 5.8461 15.3087H16.9953V20.9823H13.2846C12.8374 19.2558 11.2665 17.9769 9.40221 17.9769C7.5379 17.9769 5.96698 19.2558 5.51978 20.9823H3.00931V18.6441ZM11.4027 21.987C11.4027 23.0902 10.5054 23.9875 9.40221 23.9875C8.29898 23.9875 7.40172 23.0902 7.40172 21.987C7.40172 20.8838 8.29898 19.9865 9.40221 19.9865C10.5054 19.9865 11.4027 20.8838 11.4027 21.987ZM28.5983 21.987C28.5983 23.0902 27.701 23.9875 26.5978 23.9875C25.4946 23.9875 24.5973 23.0902 24.5973 21.987C24.5973 20.8838 25.4946 19.9865 26.5978 19.9865C27.701 19.9865 28.5983 20.8838 28.5983 21.987ZM30.4802 20.9823C30.0333 19.2558 28.4621 17.9769 26.5978 17.9769C24.7335 17.9769 23.1623 19.2558 22.7154 20.9823H19.0047V15.3087H30.1539C31.1451 15.3087 32.019 15.8203 32.5264 16.5928H30.9715C30.4167 16.5928 29.9669 17.0426 29.9669 17.5974C29.9669 18.1523 30.4167 18.6023 30.9715 18.6023H32.9907V20.9823H30.4802Z" fill="#050B20"/>
</g>
</svg>
