<svg width="34" height="35" viewBox="0 0 34 35" fill="none" xmlns="http://www.w3.org/2000/svg">
<mask id="mask0_5_885" style="mask-type:luminance" maskUnits="userSpaceOnUse" x="0" y="0" width="34" height="35">
<path d="M34 0.340088H0V34.3401H34V0.340088Z" fill="white"/>
</mask>
<g mask="url(#mask0_5_885)">
<path d="M32.8913 21.7749H31.7826V16.2315C31.7826 14.3974 30.2905 12.9054 28.4565 12.9054H24.8209L23.3616 8.52738C22.908 7.16712 21.6399 6.25317 20.2061 6.25317C20.0334 6.25317 8.04731 6.25317 7.76083 6.25317C6.31543 6.25317 5.08313 7.18013 4.62546 8.47054H3.32609C1.49208 8.47054 0 9.96262 0 11.7966V16.2315C0 18.0655 1.49208 19.5575 3.32609 19.5575H4.43481V21.7749H3.32609C2.71382 21.7749 2.21737 22.2713 2.21737 22.8836C2.21737 23.496 2.71376 23.9924 3.32609 23.9924C4.36442 23.9924 5.6104 23.9924 6.65218 23.9924C6.65218 26.4377 8.64164 28.4272 11.087 28.4272C13.5323 28.4272 15.5218 26.4377 15.5218 23.9924H20.6957C20.6957 26.4377 22.6852 28.4272 25.1305 28.4272C27.5759 28.4272 29.5653 26.4377 29.5653 23.9924C30.6074 23.9924 31.8538 23.9924 32.8914 23.9924C33.5037 23.9924 34.0001 23.496 34.0001 22.8836C34.0001 22.2713 33.5036 21.7749 32.8913 21.7749ZM4.43481 17.3401H3.32609C2.71475 17.3401 2.21737 16.8427 2.21737 16.2314V11.7966C2.21737 11.1852 2.71475 10.6879 3.32609 10.6879H4.43481C4.43481 11.3943 4.43481 16.6551 4.43481 17.3401ZM15.5217 8.47054H17.3696H20.2061C20.6841 8.47054 21.1068 8.77521 21.2579 9.22856L22.4834 12.9053H15.5217V8.47054ZM6.65218 9.57919C6.65218 8.96785 7.14956 8.47047 7.7609 8.47047H13.3044V12.9053H6.65218V9.57919ZM11.087 26.2097C9.86432 26.2097 8.86962 25.215 8.86962 23.9923C8.86962 22.7696 9.86432 21.7749 11.087 21.7749C12.3097 21.7749 13.3044 22.7696 13.3044 23.9923C13.3044 25.215 12.3097 26.2097 11.087 26.2097ZM25.1304 26.2097C23.9078 26.2097 22.9131 25.215 22.9131 23.9923C22.9131 22.7696 23.9078 21.7749 25.1304 21.7749C26.3531 21.7749 27.3478 22.7696 27.3478 23.9923C27.3478 25.215 26.3531 26.2097 25.1304 26.2097ZM29.5652 21.7749H28.9686C28.2005 20.4507 26.7683 19.5575 25.1304 19.5575C23.4926 19.5575 22.0604 20.4507 21.2923 21.7749H14.9251C14.1571 20.4507 12.7248 19.5575 11.087 19.5575C9.44914 19.5575 8.01689 20.4507 7.24884 21.7749H6.65225V18.4488V15.1227C8.46022 15.1227 27.2694 15.1227 28.4566 15.1227C29.0679 15.1227 29.5653 15.6201 29.5653 16.2315L29.5652 21.7749Z" fill="#050B20"/>
<path d="M18.8495 17.3401H16.6321C16.0198 17.3401 15.5234 17.8365 15.5234 18.4488C15.5234 19.0611 16.0198 19.5575 16.6321 19.5575H18.8495C19.4617 19.5575 19.9582 19.0612 19.9582 18.4488C19.9582 17.8365 19.4618 17.3401 18.8495 17.3401Z" fill="#050B20"/>
</g>
</svg>
