<svg width="38" height="35" viewBox="0 0 38 35" fill="none" xmlns="http://www.w3.org/2000/svg">
<g filter="url(#filter0_d_5_826)">
<path d="M28.5625 14.1525H27.3194C27.1795 14.1534 27.0409 14.1266 26.9115 14.0737C26.782 14.0208 26.6643 13.9429 26.565 13.8444L23.7387 11.0182C23.0418 10.3212 22.2132 9.76971 21.3012 9.39579C20.3891 9.02186 19.4119 8.83295 18.4263 8.84004H9.4375C8.02854 8.84004 6.67728 9.39975 5.681 10.396C4.68471 11.3923 4.125 12.7436 4.125 14.1525V19.465C4.125 20.3104 4.46083 21.1212 5.0586 21.719C5.65637 22.3167 6.46712 22.6525 7.3125 22.6525C7.3125 23.6388 7.7043 24.5847 8.4017 25.2821C9.0991 25.9795 10.045 26.3713 11.0312 26.3713C12.0175 26.3713 12.9634 25.9795 13.6608 25.2821C14.3582 24.5847 14.75 23.6388 14.75 22.6525H22.2938C22.4112 23.5415 22.8478 24.3575 23.5221 24.9486C24.1965 25.5397 25.0626 25.8656 25.9594 25.8656C26.8561 25.8656 27.7223 25.5397 28.3966 24.9486C29.071 24.3575 29.5075 23.5415 29.625 22.6525H30.6875C31.5329 22.6525 32.3436 22.3167 32.9414 21.719C33.5392 21.1212 33.875 20.3104 33.875 19.465C33.875 18.0561 33.3153 16.7048 32.319 15.7085C31.3227 14.7123 29.9715 14.1525 28.5625 14.1525ZM18.4794 10.965C19.1775 10.9638 19.869 11.1002 20.5144 11.3663C21.1598 11.6325 21.7464 12.0233 22.2406 12.5163L23.8769 14.1525H10.755C10.557 14.1539 10.3625 14.0999 10.1936 13.9967C10.0246 13.8934 9.88785 13.745 9.79875 13.5682L8.56625 11.1032C8.84804 11.0135 9.14178 10.9669 9.4375 10.965H18.4794ZM6.25 19.465V14.1525C6.25058 13.5073 6.44694 12.8775 6.81313 12.3463L7.87563 14.4713C8.13626 15.0134 8.54495 15.4706 9.05446 15.7902C9.56398 16.1099 10.1535 16.2788 10.755 16.2775H16.875V20.5275H14.3781C14.0797 19.892 13.6064 19.3545 13.0137 18.9781C12.421 18.6016 11.7334 18.4017 11.0312 18.4017C10.3291 18.4017 9.64146 18.6016 9.04876 18.9781C8.45607 19.3545 7.98282 19.892 7.68437 20.5275H7.3125C7.03071 20.5275 6.76046 20.4156 6.5612 20.2164C6.36194 20.0171 6.25 19.7468 6.25 19.465ZM11.0312 23.715C10.716 23.715 10.4079 23.6216 10.1458 23.4465C9.88372 23.2713 9.67944 23.0224 9.55882 22.7312C9.43819 22.44 9.40663 22.1195 9.46812 21.8104C9.52962 21.5012 9.68141 21.2172 9.9043 20.9943C10.1272 20.7715 10.4112 20.6197 10.7203 20.5582C11.0295 20.4967 11.3499 20.5282 11.6412 20.6489C11.9324 20.7695 12.1813 20.9738 12.3564 21.2359C12.5315 21.4979 12.625 21.8061 12.625 22.1213C12.625 22.544 12.4571 22.9494 12.1582 23.2482C11.8593 23.5471 11.4539 23.715 11.0312 23.715ZM25.9062 23.715C25.591 23.715 25.2829 23.6216 25.0208 23.4465C24.7587 23.2713 24.5544 23.0224 24.4338 22.7312C24.3132 22.44 24.2816 22.1195 24.3431 21.8104C24.4046 21.5012 24.5564 21.2172 24.7793 20.9943C25.0022 20.7715 25.2862 20.6197 25.5953 20.5582C25.9045 20.4967 26.2249 20.5282 26.5162 20.6489C26.8074 20.7695 27.0563 20.9738 27.2314 21.2359C27.4065 21.4979 27.5 21.8061 27.5 22.1213C27.5 22.544 27.3321 22.9494 27.0332 23.2482C26.7343 23.5471 26.3289 23.715 25.9062 23.715ZM30.6875 20.5275H29.2531C28.9547 19.892 28.4814 19.3545 27.8887 18.9781C27.296 18.6016 26.6084 18.4017 25.9062 18.4017C25.2041 18.4017 24.5165 18.6016 23.9238 18.9781C23.3311 19.3545 22.8578 19.892 22.5594 20.5275H19V16.2775H28.5625C29.0081 16.2799 29.4482 16.3757 29.8545 16.5587C30.2608 16.7418 30.6242 17.0079 30.9212 17.34H30.6875C30.4057 17.34 30.1355 17.452 29.9362 17.6512C29.7369 17.8505 29.625 18.1208 29.625 18.4025C29.625 18.6843 29.7369 18.9546 29.9362 19.1539C30.1355 19.3531 30.4057 19.465 30.6875 19.465H31.75C31.75 19.7468 31.6381 20.0171 31.4388 20.2164C31.2395 20.4156 30.9693 20.5275 30.6875 20.5275Z" fill="#050B20"/>
</g>
<defs>
<filter id="filter0_d_5_826" x="-2" y="0.340088" width="42" height="42" filterUnits="userSpaceOnUse" color-interpolation-filters="sRGB">
<feFlood flood-opacity="0" result="BackgroundImageFix"/>
<feColorMatrix in="SourceAlpha" type="matrix" values="0 0 0 0 0 0 0 0 0 0 0 0 0 0 0 0 0 0 127 0" result="hardAlpha"/>
<feOffset dy="4"/>
<feGaussianBlur stdDeviation="2"/>
<feComposite in2="hardAlpha" operator="out"/>
<feColorMatrix type="matrix" values="0 0 0 0 0 0 0 0 0 0 0 0 0 0 0 0 0 0 0.25 0"/>
<feBlend mode="normal" in2="BackgroundImageFix" result="effect1_dropShadow_5_826"/>
<feBlend mode="normal" in="SourceGraphic" in2="effect1_dropShadow_5_826" result="shape"/>
</filter>
</defs>
</svg>
