<svg width="34" height="35" viewBox="0 0 34 35" fill="none" xmlns="http://www.w3.org/2000/svg">
<path d="M30.5394 16.0864L26.3033 14.3927L23.8414 8.64778C23.3378 7.47371 22.1882 6.71509 20.9111 6.71509H11.1658C9.75056 6.71509 8.48938 7.66603 8.1005 9.02709L6.63637 14.1526H4.25C3.07806 14.1526 2.125 15.1057 2.125 16.2776V22.6526C2.125 23.8245 3.07806 24.7776 4.25 24.7776H6.52588C7.00081 26.6051 8.65088 27.9651 10.625 27.9651C12.5991 27.9651 14.2492 26.6051 14.7241 24.7776H19.2759C19.7508 26.6051 21.4009 27.9651 23.375 27.9651C25.3491 27.9651 26.9992 26.6051 27.4741 24.7776H29.75C30.9219 24.7776 31.875 23.8245 31.875 22.6526V18.0594C31.875 17.185 31.3512 16.4104 30.5394 16.0864ZM10.625 25.8401C9.45306 25.8401 8.5 24.887 8.5 23.7151C8.5 22.5432 9.45306 21.5901 10.625 21.5901C11.7969 21.5901 12.75 22.5432 12.75 23.7151C12.75 24.887 11.7969 25.8401 10.625 25.8401ZM23.375 25.8401C22.2031 25.8401 21.25 24.887 21.25 23.7151C21.25 22.5432 22.2031 21.5901 23.375 21.5901C24.5469 21.5901 25.5 22.5432 25.5 23.7151C25.5 24.887 24.5469 25.8401 23.375 25.8401ZM29.75 22.6526H27.4741C26.9992 20.8251 25.3491 19.4651 23.375 19.4651C21.4009 19.4651 19.7508 20.8251 19.2759 22.6526H14.7241C14.2492 20.8251 12.5991 19.4651 10.625 19.4651C8.65088 19.4651 7.00081 20.8251 6.52588 22.6526H4.25V16.2776H7.4375C7.91138 16.2776 8.32894 15.9631 8.45856 15.5073L10.1426 9.61146C10.2733 9.15671 10.693 8.84009 11.1658 8.84009H20.9111C21.3361 8.84009 21.7196 9.09296 21.8875 9.48396L24.5225 15.6337C24.633 15.893 24.8423 16.097 25.1037 16.2022L29.75 18.0594V22.6526Z" fill="#050B20"/>
<path d="M15.3481 19.2866C14.8604 18.9615 14.7287 18.3017 15.0538 17.8129L16.077 16.2776H14.8753C14.4833 16.2776 14.1231 16.0619 13.9382 15.7166C13.7533 15.3713 13.7735 14.9516 13.9913 14.6265L16.1163 11.439C16.4414 10.9503 17.1013 10.8185 17.59 11.1447C18.0777 11.4698 18.2094 12.1296 17.8843 12.6184L16.8611 14.1526H18.0628C18.4549 14.1526 18.8151 14.3683 18.9999 14.7136C19.1848 15.0589 19.1646 15.4786 18.9468 15.8038L16.8218 18.9913C16.4956 19.4811 15.8348 19.6118 15.3481 19.2866Z" fill="#050B20"/>
</svg>
