<svg width="36" height="35" viewBox="0 0 36 35" fill="none" xmlns="http://www.w3.org/2000/svg">
<mask id="mask0_5_818" style="mask-type:luminance" maskUnits="userSpaceOnUse" x="1" y="0" width="34" height="35">
<path d="M35 0.340088H1V34.3401H35V0.340088Z" fill="white"/>
</mask>
<g mask="url(#mask0_5_818)">
<path d="M31.759 15.9274L25.8898 14.9487C25.5466 14.3913 24.8644 13.383 23.8725 12.3728C21.8927 10.3565 19.6133 9.29077 17.2806 9.29077H7.7225C6.16993 9.29077 4.73044 10.1302 3.96577 11.4815L1.3319 16.1363C1.32765 16.1438 1.32446 16.1516 1.32041 16.1592C1.11668 16.5238 1 16.9434 1 17.39V22.2949C1 22.845 1.44598 23.2909 1.99609 23.2909H5.18632C5.65455 24.5161 6.848 25.3895 8.24339 25.3895C9.63879 25.3895 10.8322 24.5161 11.3005 23.2909H23.672C24.1402 24.5161 25.3336 25.3895 26.729 25.3895C28.1244 25.3895 29.3178 24.5161 29.786 23.2909H34.0039C34.554 23.2909 35 22.845 35 22.2949V19.6579C35 17.7893 33.6077 16.1883 31.759 15.9274ZM23.3976 14.8583H16.222V11.283H17.2806C20.104 11.283 22.2363 13.3703 23.3976 14.8583ZM9.57371 11.283H14.2299V14.8583H9.57371V11.283ZM5.69964 12.4626C6.08811 11.7761 6.80012 11.3354 7.58152 11.2878V14.8583H4.34402L5.69964 12.4626ZM8.24339 23.3973C7.53929 23.3973 6.96647 22.8341 6.96647 22.1417C6.96647 21.4494 7.53929 20.8861 8.24339 20.8861C8.9475 20.8861 9.52032 21.4494 9.52032 22.1417C9.52032 22.8341 8.9475 23.3973 8.24339 23.3973ZM26.729 23.3973C26.0248 23.3973 25.452 22.8341 25.452 22.1417C25.452 21.4494 26.0249 20.8861 26.729 20.8861C27.4331 20.8861 28.0059 21.4494 28.0059 22.1417C28.0059 22.8341 27.4331 23.3973 26.729 23.3973ZM29.8857 21.2987C29.5111 19.9154 28.2381 18.8939 26.729 18.8939C25.2198 18.8939 23.9469 19.9154 23.5721 21.2987H11.4001C11.0255 19.9154 9.75254 18.8939 8.24339 18.8939C6.73425 18.8939 5.4613 19.9154 5.08657 21.2987H2.99219V17.39C2.99219 17.0925 3.23417 16.8505 3.53167 16.8505H25.183L31.4445 17.8947C31.4541 17.8963 31.4637 17.8978 31.4734 17.8991C31.6428 17.9223 31.804 17.9696 31.9541 18.0368C31.5374 18.156 31.232 18.5389 31.232 18.9939C31.232 19.544 31.678 19.99 32.2281 19.99H33.0078V21.2988L29.8857 21.2987Z" fill="#050B20"/>
</g>
</svg>
