<svg width="110" height="111" viewBox="0 0 110 111" fill="none" xmlns="http://www.w3.org/2000/svg">
<g clip-path="url(#clip0_5_918)">
<g clip-path="url(#clip1_5_918)">
<path d="M17.1875 84.8875V26.4323C17.1875 14.5717 26.779 4.95679 38.6109 4.95679H25.5664C13.7008 4.95679 4.08203 14.5755 4.08203 26.4411V84.8787C4.08203 96.744 13.7008 106.363 25.5664 106.363H38.6109C26.779 106.363 17.1875 96.7481 17.1875 84.8875Z" fill="#CEE1F2"/>
<path d="M72.4023 105.166C70.1826 105.941 67.7967 106.363 65.3125 106.363H25.7812C13.9156 106.363 4.29688 96.744 4.29688 84.8787V26.4411C4.29688 14.5755 13.9156 4.95679 25.7812 4.95679H65.3125C77.1779 4.95679 86.7969 14.5755 86.7969 26.4411V48.9997M54.7852 82.9451H71.1133M21.4844 82.7302L25.4341 86.8213C27.1343 88.528 29.8912 88.528 31.5915 86.8213L39.7461 78.4333" stroke="#405FF2" stroke-width="5" stroke-miterlimit="10" stroke-linecap="round" stroke-linejoin="round"/>
<path d="M105.047 70.7228C100.32 68.8846 97.1951 68.6221 94.8535 68.6221C90.5029 68.6221 87.0117 72.1489 87.0117 76.4997C87.0117 80.8505 90.9148 84.3774 96.6917 84.3774C101.681 84.3774 105.703 87.9043 105.703 92.2551C105.703 96.6057 101.961 100.133 97.6106 100.133C95.5763 100.133 91.0458 99.4723 86.582 97.6979M96.6797 68.6221V61.6755M96.6797 100.133V106.363M57.793 58.4529V60.1716M34.1602 58.4529V60.1716" stroke="#FF5CF4" stroke-width="5" stroke-miterlimit="10" stroke-linecap="round" stroke-linejoin="round"/>
<path d="M68.5352 37.3982H68.1835C68.1734 37.3745 68.1661 37.3501 68.1557 37.3266L64.3038 28.7802C64.3002 28.7722 64.2967 28.7645 64.2931 28.7565C62.5023 24.8466 58.9291 21.9816 54.734 21.0928C52.2427 20.5652 49.1996 20.2107 45.8829 20.2107C42.6308 20.2107 39.6816 20.5527 37.2649 21.0619C33.0507 21.9501 29.4639 24.8176 27.6706 28.7327C27.6669 28.7406 27.6635 28.7486 27.6598 28.7565L23.7974 37.3264C23.7869 37.3498 23.7798 37.3743 23.7697 37.398H23.418C21.0448 37.398 19.1211 39.3217 19.1211 41.6948C19.1211 44.068 21.0448 45.9917 23.418 45.9917V49.9629C23.418 55.4736 27.8339 59.9568 33.2617 59.9568H58.6912C64.1193 59.9568 68.5352 55.4736 68.5352 49.9631V45.9919C70.9083 45.9919 72.832 44.0682 72.832 41.6951C72.832 39.3219 70.9083 37.3982 68.5352 37.3982ZM35.4885 32.3014C36.1541 30.8568 37.4799 29.7992 39.0369 29.4711C40.6093 29.1398 42.9015 28.8044 45.8831 28.8044C48.9326 28.8044 51.3212 29.1544 52.953 29.5001C54.4951 29.8269 55.811 30.8826 56.4755 32.3253L58.7617 37.3982H33.1914L35.4885 32.3014ZM35.0195 53.7263C32.1718 53.7263 29.8633 51.4178 29.8633 48.5701C29.8633 45.7223 32.1718 43.4138 35.0195 43.4138C37.8673 43.4138 40.1758 45.7223 40.1758 48.5701C40.1758 51.4178 37.8673 53.7263 35.0195 53.7263ZM56.9336 53.7263C54.0858 53.7263 51.7773 51.4178 51.7773 48.5701C51.7773 45.7223 54.0858 43.4138 56.9336 43.4138C59.7813 43.4138 62.0898 45.7223 62.0898 48.5701C62.0898 51.4178 59.7813 53.7263 56.9336 53.7263Z" fill="#FF5CF4"/>
</g>
</g>
<defs>
<clipPath id="clip0_5_918">
<rect width="110" height="110" fill="white" transform="translate(0 0.659912)"/>
</clipPath>
<clipPath id="clip1_5_918">
<rect width="110" height="110" fill="white" transform="translate(0 0.659912)"/>
</clipPath>
</defs>
</svg>
