<svg width="36" height="35" viewBox="0 0 36 35" fill="none" xmlns="http://www.w3.org/2000/svg">
<mask id="mask0_5_877" style="mask-type:luminance" maskUnits="userSpaceOnUse" x="1" y="0" width="34" height="35">
<path d="M35 0.340088H1V34.3401H35V0.340088Z" fill="white"/>
</mask>
<g mask="url(#mask0_5_877)">
<path d="M32.7415 14.496L30.7088 8.45829C30.1364 6.75896 28.5473 5.61743 26.7543 5.61743H23.2242C22.3084 5.61743 21.564 6.36251 21.564 7.27759V14.4946H1.99609C1.44625 14.4946 1 14.9409 1 15.4907V23.0942C1 24.3759 2.04258 25.4185 3.32422 25.4185H5.0727C5.52957 27.5003 7.38895 29.0628 9.60559 29.0628C11.8222 29.0628 13.6809 27.5003 14.1378 25.4185H23.8491C24.3059 27.5003 26.1646 29.0628 28.3813 29.0628C30.6026 29.0628 32.4646 27.4937 32.9168 25.4058C34.0856 25.285 35 24.2942 35 23.0942V16.8188C35 15.5591 33.9926 14.5305 32.7415 14.496ZM26.7543 7.60962C27.6913 7.60962 28.5221 8.20595 28.8202 9.0938L30.6391 14.4946L23.5562 14.4947V7.60962H26.7543ZM2.99219 23.0942V16.4868H21.564V23.4263H14.1378C13.6809 21.3451 11.8222 19.7826 9.60559 19.7826C7.38895 19.7826 5.52957 21.3451 5.0727 23.4263H3.32422C3.14094 23.4263 2.99219 23.2775 2.99219 23.0942ZM9.60559 27.0706C7.72848 27.0706 6.44445 25.1592 7.15188 23.4263C7.54633 22.4587 8.49727 21.7747 9.60559 21.7747C10.7139 21.7747 11.6642 22.4587 12.0586 23.4263C12.7642 25.1548 11.4869 27.0706 9.60559 27.0706ZM23.5562 16.4869C24.3715 16.4869 31.6649 16.4868 32.6758 16.4868C32.8591 16.4868 33.0078 16.6356 33.0078 16.8188C32.964 23.2822 33.1103 23.1562 32.8949 23.3426C32.4068 21.3033 30.568 19.7826 28.3813 19.7826C26.1646 19.7826 24.3059 21.3451 23.8491 23.4263H23.5562V16.4869ZM25.9282 25.4185C25.2208 23.6853 26.5055 21.7747 28.3813 21.7747C30.2492 21.7747 31.5465 23.6754 30.835 25.4185C29.9394 27.6168 26.8241 27.6175 25.9282 25.4185Z" fill="#050B20"/>
</g>
</svg>
