<svg width="56" height="57" viewBox="0 0 56 57" fill="none" xmlns="http://www.w3.org/2000/svg">
<rect x="0.519531" y="1.09009" width="54" height="54.75" rx="27" fill="#405FF2"/>
<rect x="0.519531" y="1.09009" width="54" height="54.75" rx="27" stroke="#405FF2"/>
<path d="M26.8688 18.7901C25.8354 18.7901 24.8937 19.0401 24.0438 19.5401C23.1938 20.0401 22.5104 20.7234 21.9938 21.5901C21.4771 22.4568 21.2188 23.3984 21.2188 24.4151C21.2188 25.4318 21.4771 26.3734 21.9938 27.2401C22.5104 28.1068 23.1938 28.7901 24.0438 29.2901C24.8937 29.7901 25.8354 30.0401 26.8688 30.0401C27.5021 30.0401 28.1188 29.9318 28.7188 29.7151C29.3188 29.4984 29.8688 29.2068 30.3688 28.8401L32.7188 31.1401C32.8188 31.2734 32.9604 31.3401 33.1438 31.3401C33.3271 31.3401 33.4771 31.2818 33.5938 31.1651C33.7104 31.0484 33.7688 30.8984 33.7688 30.7151C33.7688 30.5318 33.7021 30.3901 33.5688 30.2901L31.2688 27.9401C31.6354 27.4401 31.9271 26.8901 32.1438 26.2901C32.3604 25.6901 32.4688 25.0734 32.4688 24.4401C32.4688 23.4068 32.2188 22.4568 31.7188 21.5901C31.2188 20.7234 30.5354 20.0401 29.6687 19.5401C28.8021 19.0401 27.8688 18.7901 26.8688 18.7901ZM26.8688 20.0401C27.6688 20.0401 28.4021 20.2401 29.0687 20.6401C29.7354 21.0401 30.2604 21.5734 30.6438 22.2401C31.0271 22.9068 31.2188 23.6318 31.2188 24.4151C31.2188 25.1984 31.0271 25.9318 30.6438 26.6151C30.2604 27.2984 29.7354 27.8318 29.0687 28.2151C28.4021 28.5984 27.6688 28.7901 26.8688 28.7901C26.0687 28.7901 25.3354 28.5984 24.6688 28.2151C24.0021 27.8318 23.4688 27.2984 23.0688 26.6151C22.6688 25.9318 22.4688 25.1984 22.4688 24.4151C22.4688 23.6318 22.6688 22.9068 23.0688 22.2401C23.4688 21.5734 24.0021 21.0401 24.6688 20.6401C25.3354 20.2401 26.0687 20.0401 26.8688 20.0401Z" fill="white"/>
</svg>
