<svg width="16" height="15" viewBox="0 0 16 15" fill="none" xmlns="http://www.w3.org/2000/svg">
<g clip-path="url(#clip0_5_1492)">
<g filter="url(#filter0_d_5_1492)">
<path d="M7.96875 8.45C5.70208 8.45 3.96875 8.96667 2.76875 10C1.56875 11.0333 0.96875 12.5167 0.96875 14.45C0.96875 14.6167 1.02708 14.75 1.14375 14.85C1.26042 14.95 1.38542 15 1.51875 15H14.4187C14.5521 15 14.6771 14.95 14.7937 14.85C14.9104 14.75 14.9688 14.6167 14.9688 14.45C14.9688 12.5167 14.3688 11.0333 13.1687 10C11.9688 8.96667 10.2354 8.45 7.96875 8.45ZM2.11875 13.9C2.31875 11 4.26875 9.55 7.96875 9.55C11.6687 9.55 13.6188 11 13.8188 13.9H2.11875ZM7.96875 0C7.30208 0 6.68542 0.158333 6.11875 0.474999C5.55208 0.791666 5.11042 1.23333 4.79375 1.8C4.47708 2.36667 4.31875 3 4.31875 3.7C4.31875 4.4 4.48542 5.05833 4.81875 5.675C5.15208 6.29167 5.59375 6.775 6.14375 7.125C6.69375 7.475 7.30208 7.65 7.96875 7.65C8.63542 7.65 9.24375 7.475 9.79375 7.125C10.3438 6.775 10.7854 6.29167 11.1188 5.675C11.4521 5.05833 11.6188 4.4 11.6188 3.7C11.6188 3 11.4604 2.36667 11.1438 1.8C10.8271 1.23333 10.3854 0.791666 9.81875 0.474999C9.25208 0.158333 8.63542 0 7.96875 0ZM7.96875 6.55C7.26875 6.55 6.66875 6.275 6.16875 5.725C5.66875 5.175 5.41875 4.50833 5.41875 3.725C5.41875 2.94167 5.66042 2.30833 6.14375 1.825C6.62708 1.34167 7.23542 1.1 7.96875 1.1C8.70208 1.1 9.31042 1.35 9.79375 1.85C10.2771 2.35 10.5188 2.98333 10.5188 3.75C10.5188 4.51667 10.2688 5.175 9.76875 5.725C9.26875 6.275 8.66875 6.55 7.96875 6.55Z" fill="#050B20"/>
</g>
</g>
<defs>
<filter id="filter0_d_5_1492" x="-3.03125" y="0" width="22" height="23" filterUnits="userSpaceOnUse" color-interpolation-filters="sRGB">
<feFlood flood-opacity="0" result="BackgroundImageFix"/>
<feColorMatrix in="SourceAlpha" type="matrix" values="0 0 0 0 0 0 0 0 0 0 0 0 0 0 0 0 0 0 127 0" result="hardAlpha"/>
<feOffset dy="4"/>
<feGaussianBlur stdDeviation="2"/>
<feComposite in2="hardAlpha" operator="out"/>
<feColorMatrix type="matrix" values="0 0 0 0 0 0 0 0 0 0 0 0 0 0 0 0 0 0 0.25 0"/>
<feBlend mode="normal" in2="BackgroundImageFix" result="effect1_dropShadow_5_1492"/>
<feBlend mode="normal" in="SourceGraphic" in2="effect1_dropShadow_5_1492" result="shape"/>
</filter>
<clipPath id="clip0_5_1492">
<rect width="15" height="15" fill="white" transform="matrix(1 0 0 -1 0.46875 15)"/>
</clipPath>
</defs>
</svg>
