<svg width="15" height="15" viewBox="0 0 15 15" fill="none" xmlns="http://www.w3.org/2000/svg">
<path d="M14.5526 0.88501H5.99698C5.78202 0.88501 5.60808 1.05895 5.60808 1.27391C5.60808 1.48887 5.78202 1.66281 5.99698 1.66281H13.6138L1.05535 14.2212C0.903426 14.3731 0.903426 14.6192 1.05535 14.7711C1.13129 14.847 1.23082 14.885 1.33032 14.885C1.42981 14.885 1.52931 14.847 1.60529 14.7711L14.1637 2.21271V9.82948C14.1637 10.0444 14.3376 10.2184 14.5526 10.2184C14.7676 10.2184 14.9415 10.0444 14.9415 9.82948V1.27391C14.9415 1.05895 14.7675 0.88501 14.5526 0.88501Z" fill="white"/>
</svg>
