<svg width="19" height="19" viewBox="0 0 19 19" fill="none" xmlns="http://www.w3.org/2000/svg">
<g clip-path="url(#clip0_5_944)">
<path d="M18.3789 11.12C18.3789 13.16 17.7789 14.98 16.5789 16.58C16.4589 16.74 16.2989 16.83 16.0989 16.85C15.8989 16.87 15.7189 16.82 15.5589 16.7C15.3989 16.58 15.3089 16.43 15.2889 16.25C15.2689 16.07 15.3189 15.9 15.4389 15.74C16.4789 14.38 16.9989 12.84 16.9989 11.12C16.9989 9.75996 16.6589 8.49996 15.9789 7.33996C15.2989 6.17996 14.3689 5.25996 13.1889 4.57996C12.0089 3.89996 10.7389 3.55996 9.37891 3.55996C8.01891 3.55996 6.74891 3.89996 5.56891 4.57996C4.38891 5.25996 3.45891 6.17996 2.77891 7.33996C2.09891 8.49996 1.75891 9.75996 1.75891 11.12C1.75891 12.84 2.27891 14.38 3.31891 15.74C3.43891 15.9 3.48891 16.07 3.46891 16.25C3.44891 16.43 3.35891 16.58 3.19891 16.7C3.03891 16.82 2.85891 16.87 2.65891 16.85C2.45891 16.83 2.29891 16.74 2.17891 16.58C0.978906 14.98 0.378906 13.16 0.378906 11.12C0.378906 9.51996 0.778906 8.02996 1.57891 6.64996C2.37891 5.26996 3.46891 4.17996 4.84891 3.37996C6.22891 2.57996 7.73891 2.17996 9.37891 2.17996C11.0189 2.17996 12.5289 2.57996 13.9089 3.37996C15.2889 4.17996 16.3789 5.26996 17.1789 6.64996C17.9789 8.02996 18.3789 9.51996 18.3789 11.12ZM13.8189 6.91996C13.9789 7.03996 14.0589 7.19996 14.0589 7.39996C14.0589 7.59996 13.9789 7.75996 13.8189 7.87996L11.5389 10.22C11.7389 10.58 11.8389 10.96 11.8389 11.36C11.8389 12.04 11.5989 12.62 11.1189 13.1C10.6389 13.58 10.0589 13.82 9.37891 13.82C8.69891 13.82 8.11891 13.58 7.63891 13.1C7.15891 12.62 6.91891 12.04 6.91891 11.36C6.91891 10.68 7.15891 10.1 7.63891 9.61996C8.11891 9.13996 8.69891 8.89996 9.37891 8.89996C9.77891 8.89996 10.1589 8.99996 10.5189 9.19996L12.8589 6.91996C12.9789 6.75996 13.1389 6.67996 13.3389 6.67996C13.5389 6.67996 13.6989 6.75996 13.8189 6.91996ZM10.4589 11.36C10.4589 11.08 10.3489 10.84 10.1289 10.64C9.90891 10.44 9.65891 10.34 9.37891 10.34C9.09891 10.34 8.84891 10.44 8.62891 10.64C8.40891 10.84 8.29891 11.08 8.29891 11.36C8.29891 11.64 8.40891 11.89 8.62891 12.11C8.84891 12.33 9.09891 12.44 9.37891 12.44C9.65891 12.44 9.90891 12.33 10.1289 12.11C10.3489 11.89 10.4589 11.64 10.4589 11.36Z" fill="white"/>
</g>
<defs>
<clipPath id="clip0_5_944">
<rect width="18" height="18" fill="white" transform="matrix(1 0 0 -1 0.378906 18.5)"/>
</clipPath>
</defs>
</svg>
