<svg width="17" height="15" viewBox="0 0 17 15" fill="none" xmlns="http://www.w3.org/2000/svg">
<path d="M2.89156 0.179947C2.33156 0.179947 1.85156 0.379947 1.45156 0.779946C1.05156 1.17995 0.851562 1.66995 0.851562 2.24995C0.851562 2.82995 1.05156 3.31995 1.45156 3.71995C1.85156 4.11995 2.33156 4.31995 2.89156 4.31995C3.45156 4.31995 3.93156 4.11995 4.33156 3.71995C4.73156 3.31995 4.93156 2.82995 4.93156 2.24995C4.93156 1.66995 4.73156 1.17995 4.33156 0.779946C3.93156 0.379947 3.45156 0.179947 2.89156 0.179947ZM2.89156 1.31995C3.13156 1.31995 3.35156 1.40995 3.55156 1.58995C3.75156 1.76995 3.85156 1.98995 3.85156 2.24995C3.85156 2.50995 3.75156 2.72995 3.55156 2.90995C3.35156 3.08995 3.13156 3.17995 2.89156 3.17995C2.65156 3.17995 2.43156 3.08995 2.23156 2.90995C2.03156 2.72995 1.93156 2.50995 1.93156 2.24995C1.93156 1.98995 2.03156 1.76995 2.23156 1.58995C2.43156 1.40995 2.65156 1.31995 2.89156 1.31995ZM2.89156 10.6799C2.33156 10.6799 1.85156 10.8799 1.45156 11.2799C1.05156 11.6799 0.851562 12.1699 0.851562 12.7499C0.851562 13.3299 1.05156 13.8199 1.45156 14.2199C1.85156 14.6199 2.33156 14.8199 2.89156 14.8199C3.45156 14.8199 3.93156 14.6199 4.33156 14.2199C4.73156 13.8199 4.93156 13.3299 4.93156 12.7499C4.93156 12.1699 4.73156 11.6799 4.33156 11.2799C3.93156 10.8799 3.45156 10.6799 2.89156 10.6799ZM2.89156 11.8199C3.13156 11.8199 3.35156 11.9099 3.55156 12.0899C3.75156 12.2699 3.85156 12.4899 3.85156 12.7499C3.85156 13.0099 3.75156 13.2299 3.55156 13.4099C3.35156 13.5899 3.13156 13.6799 2.89156 13.6799C2.65156 13.6799 2.43156 13.5899 2.23156 13.4099C2.03156 13.2299 1.93156 13.0099 1.93156 12.7499C1.93156 12.4899 2.03156 12.2699 2.23156 12.0899C2.43156 11.9099 2.65156 11.8199 2.89156 11.8199ZM8.89156 0.179947C8.33156 0.179947 7.85156 0.379947 7.45156 0.779946C7.05156 1.17995 6.85156 1.66995 6.85156 2.24995C6.85156 2.82995 7.05156 3.31995 7.45156 3.71995C7.85156 4.11995 8.33156 4.31995 8.89156 4.31995C9.45156 4.31995 9.93156 4.11995 10.3316 3.71995C10.7316 3.31995 10.9316 2.82995 10.9316 2.24995C10.9316 1.66995 10.7316 1.17995 10.3316 0.779946C9.93156 0.379947 9.45156 0.179947 8.89156 0.179947ZM8.89156 1.31995C9.13156 1.31995 9.35156 1.40995 9.55156 1.58995C9.75156 1.76995 9.85156 1.98995 9.85156 2.24995C9.85156 2.50995 9.75156 2.72995 9.55156 2.90995C9.35156 3.08995 9.13156 3.17995 8.89156 3.17995C8.65156 3.17995 8.43156 3.08995 8.23156 2.90995C8.03156 2.72995 7.93156 2.50995 7.93156 2.24995C7.93156 1.98995 8.03156 1.76995 8.23156 1.58995C8.43156 1.40995 8.65156 1.31995 8.89156 1.31995ZM8.89156 10.6799C8.33156 10.6799 7.85156 10.8799 7.45156 11.2799C7.05156 11.6799 6.85156 12.1699 6.85156 12.7499C6.85156 13.3299 7.05156 13.8199 7.45156 14.2199C7.85156 14.6199 8.33156 14.8199 8.89156 14.8199C9.45156 14.8199 9.93156 14.6199 10.3316 14.2199C10.7316 13.8199 10.9316 13.3299 10.9316 12.7499C10.9316 12.1699 10.7316 11.6799 10.3316 11.2799C9.93156 10.8799 9.45156 10.6799 8.89156 10.6799ZM8.89156 11.8199C9.13156 11.8199 9.35156 11.9099 9.55156 12.0899C9.75156 12.2699 9.85156 12.4899 9.85156 12.7499C9.85156 13.0099 9.75156 13.2299 9.55156 13.4099C9.35156 13.5899 9.13156 13.6799 8.89156 13.6799C8.65156 13.6799 8.43156 13.5899 8.23156 13.4099C8.03156 13.2299 7.93156 13.0099 7.93156 12.7499C7.93156 12.4899 8.03156 12.2699 8.23156 12.0899C8.43156 11.9099 8.65156 11.8199 8.89156 11.8199ZM14.8916 0.179947C14.3316 0.179947 13.8516 0.379947 13.4516 0.779946C13.0516 1.17995 12.8516 1.66995 12.8516 2.24995C12.8516 2.82995 13.0516 3.31995 13.4516 3.71995C13.8516 4.11995 14.3316 4.31995 14.8916 4.31995C15.4516 4.31995 15.9316 4.11995 16.3316 3.71995C16.7316 3.31995 16.9316 2.82995 16.9316 2.24995C16.9316 1.66995 16.7316 1.17995 16.3316 0.779946C15.9316 0.379947 15.4516 0.179947 14.8916 0.179947ZM14.8916 1.31995C15.1316 1.31995 15.3516 1.40995 15.5516 1.58995C15.7516 1.76995 15.8516 1.98995 15.8516 2.24995C15.8516 2.50995 15.7516 2.72995 15.5516 2.90995C15.3516 3.08995 15.1316 3.17995 14.8916 3.17995C14.6516 3.17995 14.4316 3.08995 14.2316 2.90995C14.0316 2.72995 13.9316 2.50995 13.9316 2.24995C13.9316 1.98995 14.0316 1.76995 14.2316 1.58995C14.4316 1.40995 14.6516 1.31995 14.8916 1.31995ZM14.8916 10.6799C14.3316 10.6799 13.8516 10.8799 13.4516 11.2799C13.0516 11.6799 12.8516 12.1699 12.8516 12.7499C12.8516 13.3299 13.0516 13.8199 13.4516 14.2199C13.8516 14.6199 14.3316 14.8199 14.8916 14.8199C15.4516 14.8199 15.9316 14.6199 16.3316 14.2199C16.7316 13.8199 16.9316 13.3299 16.9316 12.7499C16.9316 12.1699 16.7316 11.6799 16.3316 11.2799C15.9316 10.8799 15.4516 10.6799 14.8916 10.6799ZM14.8916 11.8199C15.1316 11.8199 15.3516 11.9099 15.5516 12.0899C15.7516 12.2699 15.8516 12.4899 15.8516 12.7499C15.8516 13.0099 15.7516 13.2299 15.5516 13.4099C15.3516 13.5899 15.1316 13.6799 14.8916 13.6799C14.6516 13.6799 14.4316 13.5899 14.2316 13.4099C14.0316 13.2299 13.9316 13.0099 13.9316 12.7499C13.9316 12.4899 14.0316 12.2699 14.2316 12.0899C14.4316 11.9099 14.6516 11.8199 14.8916 11.8199ZM2.35156 3.71995V11.2199C2.35156 11.3799 2.40156 11.5199 2.50156 11.6399C2.60156 11.7599 2.73156 11.8199 2.89156 11.8199C3.05156 11.8199 3.18156 11.7599 3.28156 11.6399C3.38156 11.5199 3.43156 11.3999 3.43156 11.2799V3.71995C3.43156 3.59995 3.38156 3.47995 3.28156 3.35995C3.18156 3.23995 3.05156 3.17995 2.89156 3.17995C2.73156 3.17995 2.60156 3.23995 2.50156 3.35995C2.40156 3.47995 2.35156 3.59995 2.35156 3.71995ZM8.35156 3.71995V11.2199C8.35156 11.3799 8.40156 11.5199 8.50156 11.6399C8.60156 11.7599 8.73156 11.8199 8.89156 11.8199C9.05156 11.8199 9.18156 11.7599 9.28156 11.6399C9.38156 11.5199 9.43156 11.3999 9.43156 11.2799V3.71995C9.43156 3.59995 9.38156 3.47995 9.28156 3.35995C9.18156 3.23995 9.05156 3.17995 8.89156 3.17995C8.73156 3.17995 8.60156 3.23995 8.50156 3.35995C8.40156 3.47995 8.35156 3.59995 8.35156 3.71995ZM14.3516 3.71995V6.71995C14.3516 6.79995 14.3316 6.85995 14.2916 6.89995C14.2516 6.93995 14.2116 6.95995 14.1716 6.95995H2.89156C2.73156 6.95995 2.60156 7.00995 2.50156 7.10995C2.40156 7.20995 2.35156 7.33995 2.35156 7.49995C2.35156 7.65995 2.40156 7.78995 2.50156 7.88995C2.60156 7.98995 2.73156 8.03995 2.89156 8.03995H14.1716C14.5316 8.03995 14.8316 7.91995 15.0716 7.67995C15.3116 7.43995 15.4316 7.11995 15.4316 6.71995V3.77995C15.4316 3.61995 15.3816 3.47995 15.2816 3.35995C15.1816 3.23995 15.0516 3.17995 14.8916 3.17995C14.7316 3.17995 14.6016 3.23995 14.5016 3.35995C14.4016 3.47995 14.3516 3.59995 14.3516 3.71995Z" fill="white"/>
</svg>
